#!OML:ASF Y:\EmotionMaleHayes\Project 1\Capture day 1\Session 1\Male1.ASF
:FULLY-SPECIFIED
:DEGREES
129
root 34.5175 16.1649 -1.01003 298.337 79.9541 312.132
lowerback 14.7401 5.74493 7.89724
upperback 3.10172 9.11525 2.45754
thorax -4.08046 4.51046 -3.37215
lowerneck -24.8741 -4.46395 -1.92715
upperneck 29.8277 -6.48161 3.2792
head 14.6648 -2.33025 0.438843
rclavicle -5.32199e-014 -1.92821e-014
rhumerus -27.486 15.8836 -89.4304
rradius 87.9448
rwrist -15.4108
rhand -25.8974 -22.0768
rfingers 7.12502
rthumb 0.644804 -52.0556
lclavicle -5.32199e-014 -1.92821e-014
lhumerus -78.4367 -16.6173 92.7484
lradius 74.3655
lwrist 15.2132
lhand -27.6316 -21.2091
lfingers 7.12502
lthumb -1.03006 8.76815
rfemur 10.9392 4.10973 29.7772
rtibia 54.494
rfoot -16.8652 2.78292
rtoes 1.2965
lfemur -15.4575 7.73334 -7.75445
ltibia 16.2461
lfoot -5.8039 10.6406
ltoes 2.22951
130
root 34.8815 16.0934 -1.06186 301.779 81.3161 314.84
lowerback 13.8108 5.67418 6.56834
upperback 2.82018 8.70843 2.0581
thorax -4.0498 4.30678 -2.92648
lowerneck -24.999 -4.35036 -1.81399
upperneck 29.9091 -6.33643 3.18913
head 14.7144 -2.26568 0.409722
rclavicle 9.59757e-015 7.95139e-016
rhumerus -27.7165 17.5861 -90.4302
rradius 88.8197
rwrist -14.8372
rhand -26.2058 -21.3415
rfingers 7.12502
rthumb 0.346942 -51.3209
lclavicle 9.59757e-015 7.95139e-016
lhumerus -77.7378 -16.7891 92.5914
lradius 74.6493
lwrist 14.8904
lhand -27.4212 -20.4265
lfingers 7.12502
lthumb -0.826869 9.55162
rfemur 10.0072 3.79946 27.3721
rtibia 56.6198
rfoot -15.8866 4.06852
rtoes 1.31199
lfemur -15.5111 7.16001 -10.1381
ltibia 16.2269
lfoot -2.90424 10.8537
ltoes 3.95719
131
root 35.2326 16.0051 -1.098 301.659 81.7627 314.336
lowerback 13.3171 5.43307 6.10588
upperback 2.64239 8.2823 2.0271
thorax -4.06712 4.09276 -2.60651
lowerneck -25.1147 -4.13763 -1.59856
upperneck 29.9225 -6.04422 2.97101
head 14.7174 -2.14997 0.340037
rclavicle -6.05517e-014 -2.24627e-014
rhumerus -28.0467 19.1617 -91.4292
rradius 89.567
rwrist -13.5903
rhand -26.9184 -21.5607
rfingers 7.12502
rthumb -0.341309 -51.5401
lclavicle -6.05517e-014 -2.24627e-014
lhumerus -76.7566 -16.8531 92.4364
lradius 74.8035
lwrist 14.4686
lhand -27.2723 -20.1235
lfingers 7.12502
lthumb -0.683071 9.85511
rfemur 9.36059 3.52594 26.45
rtibia 58.8737
rfoot -15.6097 4.68865
rtoes 0.562785
lfemur -15.473 7.93289 -11.127
ltibia 16.5154
lfoot 1.39008 11.3063
ltoes 14.5689
132
root 35.5639 15.8995 -1.11972 298.236 81.6651 310.822
lowerback 13.3485 5.08555 6.25182
upperback 2.51387 7.86469 2.23991
thorax -4.2654 3.87497 -2.41978
lowerneck -24.7205 -3.91873 -1.69285
upperneck 29.24 -5.76511 3.23046
head 14.3371 -2.03288 0.520677
rclavicle 3.18366e-015 4.53229e-014
rhumerus -28.6219 20.5819 -92.611
rradius 90.1567
rwrist -12.865
rhand -26.9585 -19.6337
rfingers 7.12502
rthumb -0.379965 -49.6131
lclavicle 3.18366e-015 4.53229e-014
lhumerus -75.5512 -16.782 92.2899
lradius 74.9369
lwrist 13.7857
lhand -27.0944 -19.6401
lfingers 7.12502
lthumb -0.511215 10.339
rfemur 8.35809 3.23476 26.5891
rtibia 61.8352
rfoot -15.4062 4.26222
rtoes 6.59527
lfemur -15.7219 9.56053 -11.1441
ltibia 17.7312
lfoot 5.72342 11.021
ltoes 25.0083
133
root 35.865 15.7834 -1.14919 295.501 82.2256 308.035
lowerback 13.6814 4.53642 5.7614
upperback 2.23238 7.10142 2.21772
thorax -4.86206 3.47314 -2.11668
lowerneck -23.9573 -3.58359 -1.23869
upperneck 28.6499 -5.39557 3.07982
head 13.8876 -1.87285 0.464511
rclavicle 6.44187e-015 3.97569e-014
rhumerus -29.5161 21.741 -94.2652
rradius 90.3246
rwrist -11.3861
rhand -27.316 -19.9262
rfingers 7.12502
rthumb -0.725281 -49.9047
lclavicle 6.44187e-015 3.97569e-014
lhumerus -74.5404 -16.2717 92.0364
lradius 75.0848
lwrist 12.9889
lhand -27.7044 -20.3323
lfingers 7.12502
lthumb -1.10038 9.6446
rfemur 7.26412 2.57988 25.7979
rtibia 64.6103
rfoot -16.2535 3.80224
rtoes 8.78566
lfemur -17.8095 9.79967 -11.9965
ltibia 22.4918
lfoot 3.66475 11.1685
ltoes 25.7182
134
root 36.1221 15.6587 -1.14673 293.173 82.3315 305.833
lowerback 14.4768 4.08916 5.36215
upperback 2.15446 6.52126 2.29309
thorax -5.47558 3.17197 -1.80446
lowerneck -23.6097 -3.11534 -0.601294
upperneck 28.2456 -4.8218 2.65686
head 13.5939 -1.63465 0.300155
rclavicle -5.70295e-014 -1.19271e-015
rhumerus -30.096 22.3589 -95.819
rradius 90.158
rwrist -9.7951
rhand -26.9356 -20.1426
rfingers 7.12502
rthumb -0.357876 -50.122
lclavicle -5.70295e-014 -1.19271e-015
lhumerus -72.838 -15.9498 91.7949
lradius 74.9985
lwrist 12.3093
lhand -28.5715 -19.7229
lfingers 7.12502
lthumb -1.93786 10.248
rfemur 5.9072 2.26485 25.7533
rtibia 67.4435
rfoot -16.9307 2.50393
rtoes 10.5736
lfemur -20.2166 9.34906 -12.054
ltibia 28.2106
lfoot 1.70445 10.0714
ltoes 19.1559
